<svg xmlns="http://www.w3.org/2000/svg" viewBox="0 0 121.637 99.131" width="121.637" height="99.130997"><style id="style870">.st1{fill:#fff}</style><g id="g916" transform="translate(-111.919)" fill="#fff"><g id="g902"><g id="g900"><path class="st1" d="M211.082 55.702V4.977h-15.499V40.65c6.323 3.665 11.658 8.846 15.499 15.052z" id="path898"/></g></g><g id="g906"><path class="st1" d="M212.245 99.131V78.87c0-21.357-17.375-38.732-38.732-38.732-8.475 0-16.557 2.725-23.234 7.76V4.977H134.78v94.154h15.499V78.87c0-12.811 10.423-23.234 23.234-23.234 12.811 0 23.233 10.423 23.233 23.234v20.261z" id="path904"/></g><g id="g910"><path class="st1" d="M127.418 35.6V0h-15.499v23.328c6.171 2.698 11.505 6.951 15.499 12.272z" id="path908"/></g><g id="g914"><path class="st1" d="M218.057 35.6V0h15.499v23.328c-6.171 2.698-11.506 6.951-15.499 12.272z" id="path912"/></g></g></svg>
