<svg xmlns="http://www.w3.org/2000/svg" viewBox="0 0 352.534 58.213003" width="352.534" height="58.213001"><style id="style1494">.st0{fill:#b5eae7}</style><g id="g1518" transform="translate(0 -127.866)"><path class="st0" d="M32.772 129.286v42.579h-9.511v-16.809H9.511v16.809H0v-42.579h9.511v17.057h13.751v-17.057z" id="path1496" fill="#b5eae7"/><path class="st0" d="M37.26 133.366c0-3.028 2.544-5.315 5.573-5.315 3.029 0 5.452 2.287 5.452 5.315 0 2.904-2.423 5.314-5.452 5.314s-5.573-2.41-5.573-5.314zm1.09 9.702h8.965v28.798H38.35z" id="path1498" fill="#b5eae7"/><path class="st0" d="M81.603 127.866v44h-8.905v-3.275c-2.06 2.719-5.876 3.832-8.784 3.832-7.027 0-13.69-5.686-13.69-15.017s6.664-15.017 13.69-15.017c2.908 0 6.724 1.112 8.784 3.832v-18.354h8.905zm-9.269 29.539c0-3.708-3.089-6.489-6.482-6.489-3.513 0-6.542 2.843-6.542 6.489s3.029 6.489 6.542 6.489c3.454-.001 6.482-2.781 6.482-6.489z" id="path1500" fill="#b5eae7"/><path class="st0" d="M115.894 127.866v44h-8.905v-3.275c-2.06 2.719-5.876 3.832-8.784 3.832-7.027 0-13.69-5.686-13.69-15.017s6.664-15.017 13.69-15.017c2.908 0 6.724 1.112 8.784 3.832v-18.354h8.905zm-9.269 29.539c0-3.708-3.089-6.489-6.482-6.489-3.513 0-6.542 2.843-6.542 6.489s3.029 6.489 6.542 6.489c3.453-.001 6.482-2.781 6.482-6.489z" id="path1502" fill="#b5eae7"/><path class="st0" d="M148.73 160.124h-20.657c.848 2.719 3.21 4.326 6.603 4.326 2.665 0 5.331-1.05 7.148-2.781l4.604 5.933c-2.787 3.09-7.633 4.82-12.418 4.82-8.905 0-15.266-6.118-15.266-14.893 0-9.394 7.148-15.203 15.266-15.203 8.057 0 14.902 5.747 14.902 14.522 0 .804-.06 1.854-.182 3.276zm-8.783-5.377c-.061-2.843-2.544-4.697-5.755-4.697-2.726 0-5.27 1.236-6.179 4.697z" id="path1504" fill="#b5eae7"/><path class="st0" d="M179.87 156.354v15.511h-8.965v-14.461c0-4.449-2.666-6.118-4.907-6.118-2.423 0-5.452 1.297-5.452 6.118v14.461h-8.965v-28.798h8.965v5.129c.969-4.079 5.452-5.871 8.117-5.871 7.512.001 11.207 5.192 11.207 14.029z" id="path1506" fill="#b5eae7"/><path class="st0" d="M193.928 159.259h9.511c0 2.719 2.665 4.82 5.937 4.82 3.09 0 5.452-1.421 5.452-4.202 0-1.668-.909-3.213-4.604-4.45l-4.967-1.545c-9.208-2.534-10.965-8.281-10.965-12.298 0-7.663 6.422-12.854 14.721-12.854 7.996 0 14.114 4.882 14.114 13.163h-9.511c0-2.534-1.515-4.697-4.785-4.697-2.969 0-4.907 1.854-4.907 4.203 0 .865.242 2.781 4.119 3.893l4.362 1.359c5.937 1.854 11.994 5.006 11.994 12.73 0 9.146-7.754 13.04-15.387 13.04-8.906.001-15.084-5.314-15.084-13.162z" id="path1508" fill="#b5eae7"/><path class="st0" d="M258.688 157.343c0 9.332-6.664 15.017-13.751 15.017-2.908 0-6.664-1.112-8.724-3.77v17.489h-8.965v-43.011h8.965v3.09c2.06-2.719 5.815-3.832 8.724-3.832 7.087 0 13.751 5.747 13.751 15.017zm-9.086 0c0-3.646-3.028-6.489-6.542-6.489-3.453 0-6.543 2.781-6.543 6.489 0 3.77 3.15 6.55 6.543 6.55 3.513 0 6.542-2.842 6.542-6.55z" id="path1510" fill="#b5eae7"/><path class="st0" d="M291.344 143.068v28.798h-8.905v-3.275c-2.06 2.719-5.876 3.832-8.784 3.832-7.026 0-13.69-5.686-13.69-15.017s6.664-15.017 13.69-15.017c2.908 0 6.725 1.112 8.784 3.832v-3.152h8.905zm-9.269 14.337c0-3.708-3.09-6.489-6.482-6.489-3.513 0-6.542 2.843-6.542 6.489s3.029 6.489 6.542 6.489c3.453-.001 6.482-2.781 6.482-6.489z" id="path1512" fill="#b5eae7"/><path class="st0" d="M294.194 157.343c0-9.146 7.33-15.017 15.568-15.017 5.452 0 9.632 2.719 12.357 6.798l-6.905 4.45c-1.151-1.73-3.453-2.781-5.392-2.781-4.119 0-6.542 2.966-6.542 6.551 0 3.646 2.423 6.612 6.542 6.612 1.938 0 4.24-1.051 5.392-2.781l6.905 4.449c-2.726 4.079-6.905 6.798-12.357 6.798-8.238 0-15.568-5.933-15.568-15.079z" id="path1514" fill="#b5eae7"/><path class="st0" d="M352.353 160.124h-20.657c.849 2.719 3.211 4.326 6.604 4.326 2.665 0 5.33-1.05 7.147-2.781l4.604 5.933c-2.787 3.09-7.633 4.82-12.419 4.82-8.904 0-15.266-6.118-15.266-14.893 0-9.394 7.148-15.203 15.266-15.203 8.057 0 14.902 5.747 14.902 14.522 0 .804-.06 1.854-.181 3.276zm-8.785-5.377c-.061-2.843-2.544-4.697-5.755-4.697-2.726 0-5.27 1.236-6.179 4.697z" id="path1516" fill="#b5eae7"/></g></svg>
