<svg version="1" xmlns="http://www.w3.org/2000/svg" width="1301.333" height="1301.333" viewBox="0 0 976.000000 976.000000"><path d="M.2 183.6l.3 93.6 14 7.2c15.8 8.1 23.8 12.7 24.3 13.8.2.4.7.8 1.2.8s4.3 2.4 8.6 5.2c4.2 2.9 8.4 5.7 9.3 6.3.9.5 1.8 1.3 2.1 1.6.3.3 2.4 1.9 4.7 3.6 14.6 10.4 39.8 34.9 51 49.5 2.1 2.7 4.1 4.8 4.5 4.8.4 0 .8.5.8 1.1 0 1.4 2.8 4.1 3.2 3.2.2-.5.3-64.5.3-142.3l-.1-141.5-62.2-.3L0 90l.2 93.6zM851.9 90.2c-.5 1.3-.2 283.2.2 284 .4.6 1.1.2 1.8-1 .6-1.1 1.7-2.6 2.3-3.4.7-.7 3.3-3.8 5.8-6.8 5.6-6.8 5.5-6.7 17.5-19 15.7-16.2 32.5-29.8 53.2-43.3 5.6-3.7 10.4-6.7 10.6-6.7.2 0 4.3-2.3 9.1-5 4.8-2.8 9.3-5 10.1-5 .8 0 1.5-.5 1.5-1 0-.6.5-1 1.2-1s3.4-1 6-2.3l4.8-2.2V90h-62c-34.1 0-62 .1-62.1.2zM187 130l-3.6.5V886H307.7v-84.3c0-46.4.3-84.9.7-85.5.3-.6.2-1.3-.4-1.7-.6-.4-.8-1-.5-1.5.3-.5.8-3.1 1-5.7.8-8.3 1.6-13.8 3-20.8.3-1.4.7-3.7 1-5.3.3-1.5.9-3.6 1.2-4.7.4-1.1.8-2.6 1-3.2.2-.7.4-1.9.6-2.5.7-2.6 1.9-6.4 2.7-8.3.4-1.1 1.8-4.7 3.1-8 4.9-13 18.3-36.5 26.1-45.7 1.3-1.5 3.4-4.1 4.8-5.9 2.6-3.4 17.4-18.4 20.6-20.9 1.1-.8 4.2-3.3 6.9-5.5 7.1-5.7 14.1-10.5 15.4-10.5.6 0 1.1-.3 1.1-.8 0-.4 3-2.3 6.8-4.2 3.7-1.9 6.9-3.7 7.2-4 1.7-1.7 20-9.2 20-8.2 0 .4.4.2.8-.4.4-.6 5-2.3 10.2-3.7 22.2-6.3 29.7-7.3 55-7 21.8.2 24.2.4 35.5 3 1.7.3 3.7.8 4.5.9 1.6.3 2.2.4 9 2.3 16.2 4.4 37.1 14 51.7 23.7 4.9 3.2 9 6 9.3 6.4.3.3 2.8 2.4 5.5 4.5 8.2 6.5 21.8 20.4 28.9 29.5 3.7 4.7 7.1 9 7.6 9.7.6.7 1 1.7 1 2.3 0 .5.5 1 1 1 .6 0 1 .6 1 1.3 0 .8.9 2.2 2 3.2s1.8 2 1.5 2.3c-.2.3.4 1.7 1.4 3.1 2.2 3.2 10 19.5 12.9 27.1 2 5.3 5.3 16.1 6.8 22.5.4 1.6.8 3.2.9 3.5.1.3.5 2.5.9 5 .5 2.5 1 5.2 1.1 6.2 1.5 7.7 1.8 26.7 1.9 103l.1 87.8h124.6l-.4-93.7c-.2-51.6-.7-95.8-1-98.3-.3-2.5-.8-6.5-1.1-9-.4-2.5-.9-6.5-1.3-9-.7-5.3-.5-4.6-3.3-18-1.9-9.2-6-24.6-7.7-29-.3-.8-.7-2.1-.9-2.8-1-4.9-9.9-26.4-16.4-39.7-20.3-41.4-49-77.2-84.6-105.6-30.1-24.1-63.8-42.3-99.4-53.7-9.6-3.1-24.4-7-29-7.8-1.4-.2-4.5-.9-7-1.4-9.2-1.9-16.5-2.9-34.5-4.7-13.2-1.3-52.7-.5-61.5 1.2-1.4.3-4.4.7-6.7 1-6.3.7-11.6 1.6-13.3 2-.8.3-3.3.7-5.5 1.1-2.2.3-4.3.8-4.8 1.1-.4.2-2 .7-3.5.9-1.5.3-4.5 1-6.7 1.6-2.2.6-4.4 1.1-5 1.2-2 .4-19 5.9-20 6.4-.5.4-1.8.8-2.7.9-2.8.4-28.7 11.8-37.3 16.4-4.4 2.3-12 6.6-16.9 9.6-4.9 2.9-9.3 5.3-9.8 5.3-.4 0-.8.4-.8.8 0 .5-1.2 1.5-2.7 2.3-1.6.8-3 1.6-3.3 1.9-1.5 1.5-7.9 6-9 6.2-1 .2-1.3-34.8-1.3-171.4V130.1l-29-.3c-15.9-.2-29.1 0-29.4.5-.2.4-.9.5-1.4.1-.9-.5-8.3-.8-10.4-.4-.5.1-1.4.1-2 0-1.3-.2-8.7-.2-10 0-.5.1-1.4.1-2 0-1.3-.2-8.7-.2-10 0-.5.1-1.4.1-2 0-1.3-.2-8.7-.2-10 0-.5.1-1.4.2-2 0-2.4-.4-9.3-.5-12.5 0zM720.9 130l-49.5.5v143l.1 143 5 3.1c2.8 1.8 7.1 4.6 9.7 6.3 2.6 1.7 5.2 3.1 5.8 3.1.5 0 1 .3 1 .8 0 .4 1.8 1.8 4 3.2 2.2 1.4 4 2.8 4 3.2 0 .5.5.8 1.1.8.8 0 8.2 5.2 9.9 7 .3.3 3.2 2.8 6.5 5.4 12.3 9.9 33.6 30.4 41.1 39.6 1.6 1.9 3.8 4.4 4.9 5.6 1.1 1.1 3.1 3.5 4.5 5.3 1.4 1.9 3.3 4.2 4.3 5.2.9 1.1 1.7 2.2 1.7 2.5 0 .3 1.8 2.8 4 5.4 2.2 2.6 4 5.1 4 5.4 0 .4.9 1.6 2 2.8 1.1 1.2 2 2.8 2 3.5 0 .7.5 1.3 1 1.3.6 0 1 .4 1 1 0 .5.7 1.8 1.4 2.7.8 1 2.3 2.9 3.4 4.2 1.8 2.3 1.8-1.9 1.8-200.7v-203l-4.4-.4c-2.4-.2-4.6 0-4.9.5-.2.4-.9.5-1.4.1-1.4-.9-8.9-1-8.9-.2 0 .4-1.2.4-2.7 0-1.6-.4-25.1-.5-52.4-.2z"/></svg>